<svg xmlns="http://www.w3.org/2000/svg" viewBox="0 0 276 276" fill="none">
  <circle cx="138" cy="138" r="138" fill="#8DC63F"/>
  <path d="M138 28C77.3 28 28 77.3 28 138s49.3 110 110 110 110-49.3 110-110S198.7 28 138 28zm55.4 170.3c-14.2 12.3-32.7 19.7-53 19.7-20 0-38.3-7.2-52.4-19.1C72.8 185.7 62 166 58.4 143.8c-1.4-8.6-1.3-17.4.2-26 4.5-25.2 19.7-46.8 41-59.5 12.5-7.4 27-11.8 42.4-12.2 1.5 0 3 0 4.5.1 25.3 1.2 48 13.4 63.2 33.2 13.6 17.7 20.6 39.8 19.5 62.3-1.1 20.4-9.5 39.3-23.4 53.4l-2 3.2z" fill="#F9E988"/>
  <circle cx="165" cy="115" r="14" fill="#fff"/>
  <circle cx="165" cy="115" r="8" fill="#1A1A2E"/>
</svg>
