<svg width="100" height="100" viewBox="0 0 100 100" fill="none" xmlns="http://www.w3.org/2000/svg">
<g clip-path="url(#clip0_1658_179776)">
<path d="M100 0H0V100H100V0Z" fill="white"/>
<path d="M51.4288 30.8768C45.4335 21.9996 33.1871 18.6269 23.4684 23.1215C18.7599 25.2742 14.8577 29.2921 12.691 33.8674C10.8574 38.0115 9.94231 42.6324 10.1281 47.1797C10.4016 38.0185 17.4837 29.3307 26.4661 28.6049C33.3729 28.0475 39.4663 31.7393 42.1764 38.3446C43.4666 41.4895 44.3151 46.8151 44.3782 47.1727C44.3677 47.1587 44.3572 47.1411 44.3502 47.1271C44.4448 47.3375 44.536 47.5338 44.6271 47.7021C47.1304 52.7262 54.791 50.9206 55.2047 45.2268C55.5799 40.1993 54.3107 35.105 51.4288 30.8768Z" fill="url(#paint0_radial_1658_179776)"/>
<path d="M83.6766 28.6681C81.6432 26.3437 79.1329 24.4013 76.3316 23.1216C67.2125 18.9039 55.8636 21.6176 49.5493 29.3027C47.3826 31.7289 45.7383 34.6318 44.8618 37.9029C44.101 40.5394 44.0028 43.2916 44.2412 45.9842C44.9249 52.6632 53.7319 52.9296 55.3868 47.278C55.3973 47.2569 55.4078 47.2324 55.4183 47.2078C55.6322 45.9106 56.379 41.9874 57.1012 40.1993C57.3957 39.4736 57.1012 40.1958 57.1012 40.1958C59.8218 32.6404 66.0169 28.612 71.6125 28.612C82.7195 28.0967 92.7817 42.5238 89.8402 55.7975C89.8647 55.78 90.2749 53.9744 90.296 53.8938C90.594 52.3897 90.8008 50.8471 90.899 49.2694C91.2952 41.9313 88.7288 34.1305 83.6837 28.6751L83.6766 28.6681Z" fill="url(#paint1_radial_1658_179776)"/>
<path d="M26.4694 28.6051C15.1065 29.5237 6.77621 43.1795 11.4322 54.4267C14.7243 64.4013 22.7951 72.1846 31.9002 77.0404C34.3333 78.3096 36.6333 75.2348 35.0135 73.1312L34.1125 71.9742C30.6626 67.1605 27.2547 62.0558 25.3054 56.4883C21.554 47.5585 26.0241 37.4963 33.1764 37.4963C39.2733 37.4963 41.3033 42.4853 44.5673 47.583C44.5568 47.5304 44.4657 47.2359 44.4166 46.9765C44.1291 45.4689 43.2771 41.0268 42.1763 38.3447C39.4661 31.7359 33.3727 28.0476 26.4659 28.6051H26.4694Z" fill="url(#paint2_radial_1658_179776)"/>
<path d="M71.6092 28.6053C66.0137 28.6053 59.8221 32.6337 57.0979 40.1891C57.0979 40.1891 57.3924 39.4668 57.0979 40.1926C56.3722 41.9806 55.6289 45.9039 55.415 47.2011C62.2482 27.9286 84.073 40.2312 69.6354 59.2582C67.2653 62.4416 64.3097 65.5164 61.1053 67.8374C60.1446 68.5316 59.3102 69.3905 58.6756 70.3932C53.7637 78.1695 63.5139 88.074 71.767 81.4792C79.3364 75.4384 85.9102 67.641 89.0831 58.3852C94.0932 44.4769 83.4455 28.0548 71.6092 28.6053Z" fill="url(#paint3_radial_1658_179776)"/>
<path d="M90.9096 49.2375C91.0638 45.8682 90.6116 42.4744 89.6088 39.263C88.6096 36.048 87.0565 33.0047 84.9844 30.3612C84.4691 29.6986 83.9046 29.078 83.3366 28.4575C82.7686 27.8369 82.1726 27.2514 81.5416 26.6975C80.2794 25.5931 78.898 24.6289 77.422 23.8471C75.946 23.0652 74.3718 22.4727 72.759 22.052C71.1393 21.6523 69.4774 21.4174 67.8086 21.3789C64.4744 21.2912 61.1226 21.9503 58.0654 23.2791C57.2976 23.6052 56.5543 23.9838 55.8321 24.394C55.1028 24.7972 54.4051 25.253 53.7215 25.7298C52.3717 26.708 51.1165 27.8194 50.0262 29.0886C48.8937 30.3332 47.8735 31.6549 47.039 33.1099C46.2011 34.5579 45.5385 36.1076 45.0792 37.7168C44.5884 39.3226 44.3359 40.9879 44.2483 42.6638C44.2062 43.5017 44.2062 44.3466 44.2483 45.1881C44.2693 45.6088 44.2903 46.0295 44.3464 46.4467C44.406 46.8604 44.4551 47.2847 44.6199 47.6773C44.4516 47.2882 44.392 46.8675 44.3254 46.4502C44.2623 46.033 44.2342 45.6123 44.2062 45.1916C44.1501 44.3502 44.1326 43.5052 44.1606 42.6638C44.2132 40.9774 44.4551 39.2945 44.9389 37.6782C45.3912 36.0515 46.0468 34.4843 46.8813 33.0188C47.7087 31.5463 48.7324 30.1964 49.8614 28.9413C52.0526 26.3714 54.8679 24.359 57.9637 23.0232C61.0595 21.6804 64.4498 21.0177 67.8226 21.1124C69.509 21.151 71.1919 21.3964 72.8256 21.8136C74.4559 22.2484 76.0441 22.8584 77.5307 23.6578C79.0172 24.4571 80.4056 25.4388 81.6713 26.5572C82.3023 27.1182 82.9019 27.7142 83.4698 28.3383C84.0343 28.9658 84.5988 29.5934 85.1107 30.2666C87.1757 32.9416 88.7113 36.0094 89.686 39.2384C90.6676 42.4674 91.0954 45.8647 90.9166 49.234L90.9096 49.2375Z" fill="url(#paint4_linear_1658_179776)"/>
</g>
<defs>
<radialGradient id="paint0_radial_1658_179776" cx="0" cy="0" r="1" gradientUnits="userSpaceOnUse" gradientTransform="translate(50.2893 23.402) scale(26.2915 26.2915)">
<stop stop-color="#08D7FF"/>
<stop offset="1" stop-color="#3174FF"/>
</radialGradient>
<radialGradient id="paint1_radial_1658_179776" cx="0" cy="0" r="1" gradientUnits="userSpaceOnUse" gradientTransform="translate(50.0156 23.6265) scale(26.8454 26.8454)">
<stop stop-color="#08D7FF"/>
<stop offset="1" stop-color="#3174FF"/>
</radialGradient>
<radialGradient id="paint2_radial_1658_179776" cx="0" cy="0" r="1" gradientUnits="userSpaceOnUse" gradientTransform="translate(51.9054 83.3828) scale(65.3658 65.3658)">
<stop stop-color="#FF08FF"/>
<stop offset="0.36" stop-color="#ED0DFF"/>
<stop offset="1" stop-color="#382AFF"/>
</radialGradient>
<radialGradient id="paint3_radial_1658_179776" cx="0" cy="0" r="1" gradientUnits="userSpaceOnUse" gradientTransform="translate(49.9562 83.6634) scale(64.882 64.882)">
<stop stop-color="#FF08FF"/>
<stop offset="0.36" stop-color="#ED0DFF"/>
<stop offset="1" stop-color="#382AFF"/>
</radialGradient>
<linearGradient id="paint4_linear_1658_179776" x1="43.9853" y1="35.1715" x2="91.1024" y2="35.1715" gradientUnits="userSpaceOnUse">
<stop stop-color="#08FCFF"/>
<stop offset="1" stop-color="#2A69FF"/>
</linearGradient>
<clipPath id="clip0_1658_179776">
<rect width="100" height="100" rx="50" fill="white"/>
</clipPath>
</defs>
</svg>
