<svg width="128" height="128" viewBox="0 0 128 128" fill="none" xmlns="http://www.w3.org/2000/svg">
<path d="M68.8364 98.8976C96.1549 98.1149 107.551 93.3181 111.3 89.4114L111.657 92.6847L111.828 92.5145C111.94 92.8867 111.98 93.7271 111.809 94.502C111.332 97.8377 101.405 106.485 62.9538 106.485C61.5499 106.485 60.2124 106.468 58.9393 106.437C61.8041 103.886 64.2474 101.378 66.342 98.9502C67.1639 98.9391 67.9954 98.9217 68.8364 98.8976Z" fill="#007FFF"/>
<path d="M109.521 89.2776C109.672 93.0712 101.144 100.771 65.825 101.22C49.6248 101.427 37.0176 99.1846 27.6616 96.1517C25.8271 95.5286 21.8236 93.7055 20.485 91.3983C19.7442 90.1216 19.7354 86.8445 19.9928 83.4719C20.0654 83.7063 20.15 83.9102 20.2477 84.079C21.5837 86.3868 25.6118 88.204 27.4589 88.8242C36.8801 91.8415 49.5869 94.0597 65.9348 93.8183C94.083 93.4027 105.399 88.494 108.849 84.5771L109.521 89.2776Z" fill="#F5F3E6"/>
<path d="M69.6653 95.3081C53.4651 95.5143 40.8579 93.2723 31.5019 90.2395C29.6675 89.6164 25.6639 87.7933 24.3253 85.4861C23.5846 84.2093 23.5758 80.9323 23.8332 77.5597C23.9057 77.7941 23.9903 77.9979 24.0881 78.1667C25.4241 80.4745 29.4522 82.2918 31.2992 82.9119C40.7204 85.9292 53.4272 88.1475 69.7751 87.9061C87.9529 87.6377 99.1107 85.4955 105.664 82.9567C105.66 83.0152 105.656 83.0738 105.652 83.1323C105.38 87.3262 105.116 91.3966 94.3707 93.3078C88.1526 94.4137 80.0719 95.1756 69.6653 95.3081Z" fill="#FDC541"/>
<path d="M69.6653 89.3956C53.4651 89.6019 40.8579 87.3599 31.5019 84.3271C29.6675 83.7039 25.6639 81.8808 24.3253 79.5737C23.5846 78.2969 23.5758 75.0199 23.8332 71.6472C23.9057 71.8817 23.9903 72.0855 24.0881 72.2543C25.4241 74.5621 29.4522 76.3794 31.2992 76.9995C40.7204 80.0168 53.4272 82.235 69.7751 81.9937C87.9529 81.7253 99.1107 79.5831 105.664 77.0442C105.66 77.1028 105.656 77.1613 105.652 77.2198C105.38 81.4138 105.116 85.4842 94.3707 87.3953C88.1526 88.5013 80.0719 89.2632 69.6653 89.3956Z" fill="#FF1100"/>
<path d="M67.0705 20.038C73.587 22.3691 83.2338 35.2567 69.6888 68.1584C63.4759 83.25 54.5527 93.4301 45.601 100.093C43.7974 101.381 39.0729 103.891 34.6044 103.624C32.8553 103.52 29.5513 102.426 25.773 100.933C26.6491 101.164 27.3948 101.307 27.9716 101.342C32.44 101.611 37.1645 99.0755 38.9682 97.774C47.9198 91.0403 56.843 80.7527 63.0559 65.5019C74.2389 38.051 69.6133 24.3866 63.9927 19.1299L67.0705 20.038Z" fill="#FF1100"/>
<path d="M72.6563 20.4125C79.1728 22.8107 88.8196 36.0695 75.2746 69.919C69.0616 85.4453 60.1385 95.9186 51.1868 102.774C49.3831 104.099 44.6587 106.681 40.1902 106.406C38.441 106.299 35.1369 105.173 31.3585 103.637C32.2347 103.875 32.9806 104.023 33.5574 104.058C38.0258 104.335 42.7503 101.727 44.5539 100.388C53.5056 93.4599 62.4288 82.8761 68.6417 67.1859C79.8247 38.9444 75.1992 24.8863 69.5786 19.4783L72.6563 20.4125Z" fill="#FDC541"/>
<path d="M77.5439 23.5425C84.0604 25.9408 93.7072 39.1996 80.1622 73.0491C73.9492 88.5754 65.0261 99.0487 56.0744 105.904C54.2707 107.229 49.5463 109.811 45.0778 109.537C43.3286 109.429 40.0245 108.303 36.2461 106.768C37.1223 107.005 37.8682 107.153 38.445 107.188C42.9134 107.465 47.6379 104.857 49.4416 103.518C58.3932 96.59 67.3164 86.0061 73.5293 70.316C84.7123 42.0744 80.0868 28.0164 74.4662 22.6083L77.5439 23.5425Z" fill="#F5F3E6"/>
<path d="M84.6427 74.5689C98.1877 39.466 88.541 25.7162 82.0245 23.2292L78.9469 22.2605C79.0058 22.3193 79.0647 22.3791 79.1234 22.4399C74.3969 21.6661 67.9212 24.8755 61.8129 31.0198C60.9402 31.8893 64.7652 30.4574 66.0021 29.2251C68.9695 26.7905 73.4087 25.572 77.5811 27.3221C86.9954 31.2711 87.1907 52.0691 78.0171 73.7756C68.8436 95.4821 54.8224 109.53 45.4081 105.581C44.1495 105.053 42.8334 104.065 41.7398 103.305C39.2133 101.049 38.0743 98.0368 38.0743 90.263L38.0743 99.854C37.4115 98.8683 36.8523 97.7634 36.4167 96.5233C36.3287 94.4366 34.9324 90.9586 34.5023 94.6105C34.8269 102.578 38.2824 107.209 42.9469 109.974L42.9255 109.972C42.7506 109.961 42.6159 109.957 42.4994 109.954C42.0539 109.941 41.8735 109.936 40.7281 109.556C44.3858 111.16 46.3881 111.907 48.5828 111.991C53.7232 112.188 59.6958 109.191 61.4994 107.817C70.4511 100.708 78.4298 90.6701 84.6427 74.5689Z" fill="#007FFF"/>
<path d="M66.0151 56.781C82.2153 56.5748 94.8225 58.8167 104.178 61.8495C106.013 62.4727 110.016 64.2958 111.355 66.603C112.096 67.8797 112.105 71.1568 111.847 74.5294C111.775 74.2949 111.69 74.0911 111.592 73.9223C110.256 71.6145 106.228 69.7973 104.381 69.1771C94.96 66.1598 82.2531 63.9416 65.9053 64.183C47.7275 64.4514 36.5696 66.5936 30.0165 69.1324C30.0204 69.0738 30.0242 69.0153 30.028 68.9568C30.3001 64.7628 30.5642 60.6925 41.3097 58.7813C47.5278 57.6754 55.6085 56.9135 66.0151 56.781Z" fill="#FF1100"/>
<path d="M66.0151 63.4493C82.2153 63.2431 94.8225 65.4851 104.178 68.5179C106.013 69.141 110.016 70.9641 111.355 73.2713C112.096 74.5481 112.105 77.8251 111.847 81.1977C111.775 80.9633 111.69 80.7595 111.592 80.5907C110.256 78.2829 106.228 76.4656 104.381 75.8455C94.96 72.8282 82.2531 70.6099 65.9053 70.8513C47.7275 71.1197 36.5696 73.2619 30.0165 75.8008C30.0204 75.7422 30.0242 75.6837 30.028 75.6251C30.3001 71.4312 30.5642 67.3608 41.3097 65.4496C47.5278 64.3437 55.6085 63.5818 66.0151 63.4493Z" fill="#FDC541"/>
<path d="M22.319 81.6521C22.1684 77.8586 30.6967 70.1591 66.0153 69.7095C82.2155 69.5033 94.8227 71.7452 104.179 74.778C106.013 75.4012 110.017 77.2243 111.355 79.5315C112.096 80.8082 112.105 84.0853 111.847 87.4579C111.775 87.2234 111.69 87.0196 111.593 86.8508C110.257 84.543 106.228 82.7257 104.381 82.1056C94.9602 79.0883 82.2534 76.8701 65.9055 77.1115C37.7573 77.5271 26.4418 82.4358 22.9912 86.3527L22.319 81.6521Z" fill="#F5F3E6"/>
<path d="M22.319 88.6082C22.1684 84.8146 30.6967 77.1151 66.0153 76.6655C82.2155 76.4593 94.8227 78.7012 104.179 81.7341C106.013 82.3572 110.017 84.1803 111.355 86.4875C112.023 87.6377 112.096 90.4116 111.916 93.4161C110.484 91.1859 106.191 89.6688 104.382 89.0614C94.961 86.0441 82.2542 83.8259 65.9063 84.0673C37.7561 84.4829 26.441 89.3923 22.9913 93.3094L22.319 88.6082Z" fill="#007FFF"/>
<path d="M25.4614 102.689C18.9449 100.272 9.29818 86.9093 22.8432 52.7942C29.0561 37.146 37.9793 26.5905 46.9309 19.6814C48.7346 18.3459 53.4591 15.7441 57.9275 16.0204C60.4537 16.1765 66.2231 18.4737 71.9808 21.065C71.3884 21.1265 70.8167 21.1895 70.2709 21.2496C68.2913 21.4677 66.6531 21.6482 65.6077 21.5847C61.1392 21.3135 56.4148 23.8682 54.6111 25.1795C45.6594 31.9636 36.7363 42.3281 30.5233 57.6931C19.271 85.521 24.0239 99.2864 29.6912 104.51L25.4614 102.689Z" fill="#FF1100"/>
<path d="M31.0472 105.369C24.5307 102.926 14.8839 89.4181 28.4289 54.9326C34.6418 39.1145 43.565 28.4444 52.5167 21.4602C54.3203 20.1103 59.0448 17.4802 63.5133 17.7595C65.4638 17.8814 69.348 19.2936 73.6673 21.1367C72.0545 20.5958 70.7127 20.2518 69.797 20.1942C65.3286 19.913 60.6041 22.5618 58.8004 23.9214C49.8488 30.9556 40.9256 41.7022 34.7127 57.6335C21.1677 92.3659 31.1276 105.531 37.6441 107.991L43.2296 109.904L31.0472 105.369Z" fill="#FDC541"/>
<path d="M36.2831 107.702C29.7666 105.232 20.1199 91.5791 33.6649 56.7232C39.8778 40.7352 48.801 29.9504 57.7526 22.8913C59.5563 21.5268 64.2808 18.8685 68.7492 19.1508C70.7682 19.2783 74.8585 20.8029 79.3588 22.7616C77.8372 22.2759 76.5705 21.9688 75.6952 21.9124C71.2268 21.6241 66.5383 24.0123 64.7346 25.4058C55.7829 32.615 46.8598 43.6289 40.6469 59.9567C29.0813 90.3514 37.0967 105.253 42.88 110.252L36.2831 107.702Z" fill="#F5F3E6"/>
<path d="M39.2506 58.648C25.7055 93.7509 35.3523 107.501 41.8688 109.988L44.9464 110.956C44.8874 110.898 44.8286 110.838 44.7699 110.777C49.4963 111.551 55.972 108.341 62.0803 102.197C62.9531 101.328 59.128 102.76 57.8911 103.992C54.9238 106.426 50.4845 107.645 46.3122 105.895C36.8978 101.946 36.7026 81.1479 45.8761 59.4413C55.0497 37.7348 69.0708 23.6873 78.4852 27.6363C79.7437 28.1642 81.0599 29.1518 82.1535 29.9117C84.68 32.1675 85.819 35.1801 85.819 42.9539V33.3629C86.4818 34.3486 87.041 35.4535 87.4766 36.6936C87.5646 38.7803 88.9609 42.2583 89.391 38.6064C89.0663 30.639 85.6109 26.0078 80.9463 23.2432L80.9678 23.2445C81.1427 23.2558 81.2774 23.2596 81.3939 23.263C81.8394 23.2758 82.0198 23.281 83.1652 23.6606C79.5075 22.0565 77.5051 21.3102 75.3104 21.2261C70.1701 21.0291 64.1975 24.0254 62.3938 25.3995C53.4421 32.5087 45.4635 42.5468 39.2506 58.648Z" fill="#007FFF"/>
</svg>
